HIERARCHY
ROOT Hips
{
	OFFSET 0.000000 0.000000 0.000000
	CHANNELS 6 Xposition Yposition Zposition Xrotation Yrotation Zrotation
	JOINT LeftUpLeg_virtual
	{
		OFFSET 0.000000 0.000000 0.000000
		CHANNELS 3 Xrotation Yrotation Zrotation
		JOINT LeftUpLeg
		{
			OFFSET 15.427100 -6.655098 0.678600
			CHANNELS 3 Xrotation Yrotation Zrotation
			JOINT LeftLeg
			{
				OFFSET 4.081073 -39.591068 13.024000
				CHANNELS 3 Xrotation Yrotation Zrotation
				JOINT LeftFoot
				{
					OFFSET -4.081074 -37.707932 -15.979700
					CHANNELS 3 Xrotation Yrotation Zrotation
					JOINT LeftToeBase
					{
						OFFSET 5.346399 -15.068900 20.645000
						CHANNELS 3 Xrotation Yrotation Zrotation
						JOINT LeftToe_End
						{
							OFFSET 2.754700 0.931300 11.300900
							CHANNELS 3 Xrotation Yrotation Zrotation
							End Site
							{
								OFFSET 0 0 0
							}
						}
					}
				}
			}
		}
	}
	JOINT RightUpLeg_virtual
	{
		OFFSET 0.000000 0.000000 0.000000
		CHANNELS 3 Xrotation Yrotation Zrotation
		JOINT RightUpLeg
		{
			OFFSET -15.569500 -6.655098 0.678600
			CHANNELS 3 Xrotation Yrotation Zrotation
			JOINT RightLeg
			{
				OFFSET -4.081825 -39.591045 13.023800
				CHANNELS 3 Xrotation Yrotation Zrotation
				JOINT RightFoot
				{
					OFFSET 4.081824 -37.707954 -15.979600
					CHANNELS 3 Xrotation Yrotation Zrotation
					JOINT RightToeBase
					{
						OFFSET -5.346400 -15.068900 20.645000
						CHANNELS 3 Xrotation Yrotation Zrotation
						JOINT RightToe_End
						{
							OFFSET -2.754700 0.931300 11.300900
							CHANNELS 3 Xrotation Yrotation Zrotation
							End Site
							{
								OFFSET 0 0 0
							}
						}
					}
				}
			}
		}
	}
	JOINT Spine_virtual
	{
		OFFSET 0.000000 0.000000 0.000000
		CHANNELS 3 Xrotation Yrotation Zrotation
		JOINT Spine
		{
			OFFSET -0.279200 12.230698 -2.892100
			CHANNELS 3 Xrotation Yrotation Zrotation
			JOINT Spine1
			{
				OFFSET -0.232667 10.192268 -1.242267
				CHANNELS 3 Xrotation Yrotation Zrotation
				JOINT Spine1_split
				{
					OFFSET -0.232667 10.192268 -1.242267
					CHANNELS 3 Xrotation Yrotation Zrotation
					JOINT Spine2
					{
						OFFSET -0.232667 10.192268 -1.242267
						CHANNELS 3 Xrotation Yrotation Zrotation
						JOINT Neck_virtual
						{
							OFFSET 0.000000 0.000000 0.000000
							CHANNELS 3 Xrotation Yrotation Zrotation
							JOINT Neck
							{
								OFFSET -0.418800 17.814194 8.416900
								CHANNELS 3 Xrotation Yrotation Zrotation
								JOINT Head
								{
									OFFSET 0.000000 7.031097 3.806800
									CHANNELS 3 Xrotation Yrotation Zrotation
									JOINT HeadTop_End
									{
										OFFSET 0.000000 24.646606 12.978600
										CHANNELS 3 Xrotation Yrotation Zrotation
										End Site
										{
											OFFSET 0 0 0
										}
									}
								}
							}
						}
						JOINT LeftShoulder_virtual
						{
							OFFSET 0.000000 0.000000 0.000000
							CHANNELS 3 Xrotation Yrotation Zrotation
							JOINT LeftShoulder
							{
								OFFSET 8.476499 7.247704 -3.868750
								CHANNELS 3 Xrotation Yrotation Zrotation
								JOINT LeftShoulder_split
								{
									OFFSET 8.476499 7.247704 -3.868750
									CHANNELS 3 Xrotation Yrotation Zrotation
									JOINT LeftArm
									{
										OFFSET 9.308998 -2.777710 0.208600
										CHANNELS 3 Xrotation Yrotation Zrotation
										JOINT LeftForeArm
										{
											OFFSET 29.972298 0.000000 0.000000
											CHANNELS 3 Xrotation Yrotation Zrotation
											JOINT LeftHand
											{
												OFFSET 26.026505 0.000000 0.000000
												CHANNELS 3 Xrotation Yrotation Zrotation
												End Site
												{
													OFFSET 0 0 0
												}
											}
										}
									}
								}
							}
						}
						JOINT RightShoulder_virtual
						{
							OFFSET 0.000000 0.000000 0.000000
							CHANNELS 3 Xrotation Yrotation Zrotation
							JOINT RightShoulder
							{
								OFFSET -7.570500 7.247704 -3.868750
								CHANNELS 3 Xrotation Yrotation Zrotation
								JOINT RightShoulder_split
								{
									OFFSET -7.570500 7.247704 -3.868750
									CHANNELS 3 Xrotation Yrotation Zrotation
									JOINT RightArm
									{
										OFFSET -9.308998 -2.777710 0.208500
										CHANNELS 3 Xrotation Yrotation Zrotation
										JOINT RightForeArm
										{
											OFFSET -29.972300 0.000000 0.000000
											CHANNELS 3 Xrotation Yrotation Zrotation
											JOINT RightHand
											{
												OFFSET -26.026505 0.000000 0.000000
												CHANNELS 3 Xrotation Yrotation Zrotation
												End Site
												{
													OFFSET 0 0 0
												}
											}
										}
									}
								}
							}
						}
					}
				}
			}
		}
	}
}
MOTION
Frames: 9
Frame Time: 0.03333333
2.099451 72.805344 -1.895813 0.000000 0.000000 0.000000 -5.064321 -42.721208 -0.023918 -34.311606 5.072922 20.287902 56.805741 -7.625171 3.679028 -20.105201 -7.073252 -17.241793 -1.594204 0.000015 -0.000002 0.000000 0.000000 0.000000 -5.064321 -42.721208 -0.023918 -19.324436 -9.186521 -34.394189 57.561173 -3.564042 -5.081606 -26.919041 -10.201039 25.656916 -1.421719 -0.000013 -0.000000 0.000000 0.000000 0.000000 -5.064321 -42.721208 -0.023918 9.423335 7.440748 -1.392635 2.187715 0.989901 -0.914786 0.000000 0.000000 0.000000 0.000000 0.000000 0.000000 2.202830 0.982771 -0.893560 0.084652 13.220555 4.538679 8.920923 20.138131 -4.130228 0.000000 0.000000 0.000000 2.202830 0.982771 -0.893560 1.117176 3.546351 -8.633309 0.000000 0.000000 0.000000 -53.487027 4.935510 -51.502983 -179.999950 -73.641932 -179.999950 0.000000 0.000000 0.000000 2.202830 0.982771 -0.893560 3.036126 13.027195 -5.371406 0.000000 0.000000 0.000000 -48.713722 27.172835 83.457071 -179.999923 74.011698 179.999923 0.000000 0.000000 0.000000 
2.099472 72.867249 -1.826759 0.000000 0.000000 0.000000 -4.919596 -42.728215 -0.115733 -34.378623 5.045678 20.745993 56.719383 -7.533790 3.334279 -20.123003 -7.332299 -17.163104 -1.594204 0.000015 -0.000002 0.000000 0.000000 0.000000 -4.919596 -42.728215 -0.115733 -19.528595 -9.595842 -34.400367 57.349219 -3.171898 -4.959800 -26.865105 -10.092504 25.287510 -1.421719 -0.000014 0.000001 0.000000 0.000000 0.000000 -4.919596 -42.728215 -0.115733 9.379870 7.500613 -1.427673 2.160459 1.014513 -0.917777 0.000000 0.000000 0.000000 0.000000 0.000000 0.000000 2.175228 1.007280 -0.896828 -0.002264 13.274978 4.469520 8.607457 20.275411 -3.937009 0.000000 0.000000 0.000000 2.175228 1.007280 -0.896828 1.001848 3.254859 -7.754999 0.000000 0.000000 0.000000 -53.008965 4.373917 -50.549287 -179.999855 -73.314404 -179.999841 0.000000 0.000000 0.000000 2.175228 1.007280 -0.896828 2.949114 12.677381 -5.252450 0.000000 0.000000 0.000000 -49.612694 28.281049 83.025867 179.999964 74.211330 -179.999978 0.000000 0.000000 0.000000 
2.094810 72.979919 -1.691181 0.000000 0.000000 0.000000 -4.747425 -42.922353 -0.153877 -34.379918 5.302821 21.111380 56.597089 -7.970833 3.002323 -20.120486 -7.145010 -16.727289 -1.594204 0.000017 -0.000002 0.000000 0.000000 0.000000 -4.747425 -42.922353 -0.153877 -19.579022 -9.648733 -34.401009 57.028016 -2.517943 -4.528001 -26.744277 -10.244357 24.671442 -1.421719 -0.000014 0.000001 0.000000 0.000000 0.000000 -4.747425 -42.922353 -0.153877 9.299702 7.458656 -1.501219 2.116463 1.001624 -0.938756 0.000000 0.000000 0.000000 0.000000 0.000000 0.000000 2.131452 0.993925 -0.918456 -0.160923 13.383833 4.389431 7.954198 20.680829 -3.679493 0.000000 0.000000 0.000000 2.131452 0.993925 -0.918456 0.882103 2.965735 -6.781120 0.000000 0.000000 0.000000 -52.480322 4.371687 -50.014764 -179.999786 -72.505655 -179.999814 0.000000 0.000000 0.000000 2.131452 0.993925 -0.918456 2.865109 12.349324 -5.101036 0.000000 0.000000 0.000000 -50.475153 29.672883 82.603823 -179.999978 74.347798 179.999964 0.000000 0.000000 0.000000 
2.109067 73.187256 -1.457214 0.000000 0.000000 0.000000 -4.530778 -43.415797 -0.115905 -34.238707 5.986931 21.444547 56.362882 -8.697681 2.680810 -20.168963 -6.640852 -16.023106 -1.594204 0.000015 -0.000002 0.000000 0.000000 0.000000 -4.530778 -43.415797 -0.115905 -19.655041 -9.440700 -34.419051 56.515386 -1.680547 -3.991131 -26.469285 -10.439949 23.932033 -1.421719 -0.000014 0.000001 0.000000 0.000000 0.000000 -4.530778 -43.415797 -0.115905 9.169905 7.349850 -1.622901 2.049150 0.967111 -0.982518 0.000000 0.000000 0.000000 0.000000 0.000000 0.000000 2.064604 0.958717 -0.963082 -0.397993 13.551859 4.310263 6.833771 21.403040 -3.318826 0.000000 0.000000 0.000000 2.064604 0.958717 -0.963082 0.760003 2.691017 -5.709704 0.000000 0.000000 0.000000 -51.890962 4.777278 -49.666759 -179.999855 -71.344891 -179.999868 0.000000 0.000000 0.000000 2.064604 0.958717 -0.963082 2.789645 12.065803 -4.922058 0.000000 0.000000 0.000000 -51.267974 31.359072 82.088116 179.999978 74.448761 -179.999964 0.000000 0.000000 0.000000 
2.163129 73.491592 -1.104885 0.000000 0.000000 0.000000 -4.273670 -44.368332 -0.022584 -33.838642 7.056420 21.841427 55.995803 -9.531325 2.275803 -20.359167 -5.877931 -15.145413 -1.594204 0.000015 -0.000002 0.000000 0.000000 0.000000 -4.273670 -44.368332 -0.022584 -19.929797 -8.987381 -34.454254 55.813762 -0.814842 -3.530371 -25.976312 -10.399689 23.226350 -1.421719 -0.000014 0.000001 0.000000 0.000000 0.000000 -4.273670 -44.368332 -0.022584 8.984631 7.229997 -1.780075 1.956322 0.934501 -1.039522 0.000000 0.000000 0.000000 0.000000 0.000000 0.000000 1.971920 0.925407 -1.021209 -0.684146 13.764218 4.208535 5.252515 22.328098 -2.839947 0.000000 0.000000 0.000000 1.971920 0.925407 -1.021209 0.637434 2.468930 -4.579883 0.000000 0.000000 0.000000 -51.272939 5.449255 -49.266940 -179.999950 -69.923283 -179.999964 0.000000 0.000000 0.000000 1.971920 0.925407 -1.021209 2.719007 11.806950 -4.709298 0.000000 0.000000 0.000000 -52.079462 33.374842 81.488794 179.999896 74.627432 -179.999923 0.000000 0.000000 0.000000 
2.278770 73.848083 -0.628757 0.000000 0.000000 0.000000 -4.060908 -45.913365 0.098845 -33.054943 8.501273 22.229699 55.550594 -10.471913 1.777413 -20.782544 -4.694589 -14.087868 -1.594204 0.000015 -0.000002 0.000000 0.000000 0.000000 -4.060908 -45.913365 0.098845 -20.423580 -8.122818 -34.477634 55.012215 0.072896 -3.216324 -25.246741 -10.143446 22.615243 -1.421719 -0.000013 0.000001 0.000000 0.000000 0.000000 -4.060908 -45.913365 0.098845 8.795324 7.238848 -1.949428 1.863550 0.958203 -1.094341 0.000000 0.000000 0.000000 0.000000 0.000000 0.000000 1.878251 0.948838 -1.077120 -1.022866 14.018722 4.028355 3.556166 23.284574 -2.214758 0.000000 0.000000 0.000000 1.878251 0.948838 -1.077120 0.511943 2.340406 -3.391968 0.000000 0.000000 0.000000 -50.648178 6.283240 -48.819501 179.999950 -68.268205 179.999964 0.000000 0.000000 0.000000 1.878251 0.948838 -1.077120 2.639990 11.492026 -4.490694 0.000000 0.000000 0.000000 -53.050817 35.590251 80.947147 179.999909 74.978545 -179.999923 0.000000 0.000000 0.000000 
2.502677 74.317192 0.016033 0.000000 0.000000 0.000000 -3.634501 -48.769569 0.433473 -31.692658 10.639890 23.039037 54.839159 -10.644526 1.016144 -21.688583 -3.699126 -13.352809 -1.594204 0.000015 -0.000002 0.000000 0.000000 0.000000 -3.634501 -48.769569 0.433473 -21.773321 -6.469763 -34.194178 54.104339 0.935135 -3.439240 -24.011354 -9.359158 22.191320 -1.421719 -0.000014 0.000001 0.000000 0.000000 0.000000 -3.634501 -48.769569 0.433473 8.476935 7.665446 -2.142686 1.723157 1.157240 -1.149286 0.000000 0.000000 0.000000 0.000000 0.000000 0.000000 1.734676 1.147996 -1.132964 -1.501762 14.315640 3.851291 2.019822 24.423793 -1.787590 0.000000 0.000000 0.000000 1.734676 1.147996 -1.132964 0.377425 2.392689 -2.190964 0.000000 0.000000 0.000000 -49.753130 7.092112 -47.553170 -179.999964 -66.469086 -179.999964 0.000000 0.000000 0.000000 1.734676 1.147996 -1.132964 2.536057 11.010400 -4.345441 0.000000 0.000000 0.000000 -54.235991 37.996370 80.791958 -179.999991 75.511539 179.999978 0.000000 0.000000 0.000000 
2.829788 74.921677 0.779488 0.000000 0.000000 0.000000 -2.450212 -53.229751 1.239732 -30.085071 13.542097 24.182116 53.828263 -10.868544 -0.015801 -22.963364 -1.867773 -12.490750 -1.594204 0.000012 -0.000002 0.000000 0.000000 0.000000 -2.450212 -53.229751 1.239732 -24.730069 -4.364809 -32.820592 53.089486 2.274221 -4.745501 -22.105071 -8.293580 21.645752 -1.421719 -0.000015 0.000001 0.000000 0.000000 0.000000 -2.450212 -53.229751 1.239732 7.889302 8.382209 -2.307615 1.492039 1.476185 -1.218452 0.000000 0.000000 0.000000 0.000000 0.000000 0.000000 1.499631 1.466403 -1.201847 -2.301725 14.671057 3.827691 0.603029 26.230455 -2.159940 0.000000 0.000000 0.000000 1.499631 1.466403 -1.201847 0.173060 3.039238 -0.844238 0.000000 0.000000 0.000000 -49.092032 6.962159 -44.601402 -179.999937 -67.375021 -179.999923 0.000000 0.000000 0.000000 1.499631 1.466403 -1.201847 2.392599 10.277362 -4.323733 0.000000 0.000000 0.000000 -56.028291 40.818331 81.349780 -179.999978 76.278542 179.999978 0.000000 0.000000 0.000000 
3.203318 75.530167 1.547920 0.000000 0.000000 0.000000 -0.598260 -57.967242 2.309949 -28.526608 15.801796 25.098275 52.844508 -11.081501 -1.091488 -24.371037 0.834063 -11.632374 -1.594204 0.000013 -0.000002 0.000000 0.000000 0.000000 -0.598260 -57.967242 2.309949 -28.453468 -3.087735 -30.291134 52.004162 4.433516 -6.852558 -19.881487 -7.637038 20.793118 -1.421719 -0.000013 0.000001 0.000000 0.000000 0.000000 -0.598260 -57.967242 2.309949 7.157670 8.532550 -2.170261 1.243022 1.559123 -1.269403 0.000000 0.000000 0.000000 0.000000 0.000000 0.000000 1.253378 1.547083 -1.250006 -3.329426 15.130599 3.838446 -0.489756 28.792884 -3.531863 0.000000 0.000000 0.000000 1.253378 1.547083 -1.250006 -0.147711 4.417823 0.976165 0.000000 0.000000 0.000000 -52.038535 3.649936 -38.886972 179.999937 -75.537678 179.999937 0.000000 0.000000 0.000000 1.253378 1.547083 -1.250006 2.216890 9.379416 -4.261205 0.000000 0.000000 0.000000 -58.586030 44.253684 82.093874 179.999991 77.091812 179.999964 0.000000 0.000000 0.000000 
